<mxfile host="65bd71144e">
    <diagram id="MuOTUkgfw2WzvJz0S-6y" name="Users">
        <mxGraphModel dx="826" dy="493" grid="1" gridSize="10" guides="1" tooltips="1" connect="1" arrows="1" fold="1" page="1" pageScale="1" pageWidth="850" pageHeight="1100" math="0" shadow="0">
            <root>
                <mxCell id="Y8Qdj6MZB0MBZ-rF6HJr-0"/>
                <mxCell id="Y8Qdj6MZB0MBZ-rF6HJr-1" parent="Y8Qdj6MZB0MBZ-rF6HJr-0"/>
            </root>
        </mxGraphModel>
    </diagram>
    <diagram id="aKYyMaTRtmO6r43nVmqd" name="Products">
        <mxGraphModel dx="826" dy="493" grid="1" gridSize="10" guides="1" tooltips="1" connect="1" arrows="1" fold="1" page="1" pageScale="1" pageWidth="850" pageHeight="1100" math="0" shadow="0">
            <root>
                <mxCell id="0"/>
                <mxCell id="1" parent="0"/>
                <mxCell id="6" value="&lt;p style=&quot;margin: 0px ; margin-top: 4px ; text-align: center&quot;&gt;&lt;i&gt;&amp;lt;&amp;lt;Interface&amp;gt;&amp;gt;&lt;/i&gt;&lt;br&gt;&lt;b&gt;Products&lt;/b&gt;&lt;/p&gt;&lt;hr size=&quot;1&quot;&gt;&lt;p style=&quot;margin: 0px ; margin-left: 4px&quot;&gt;+ field1: Type&lt;br&gt;+ field2: Type&lt;/p&gt;&lt;hr size=&quot;1&quot;&gt;&lt;p style=&quot;margin: 0px ; margin-left: 4px&quot;&gt;+ method1(Type): Type&lt;br&gt;+ method2(Type, Type): Type&lt;/p&gt;" style="verticalAlign=top;align=left;overflow=fill;fontSize=12;fontFamily=Helvetica;html=1;" vertex="1" parent="1">
                    <mxGeometry x="80" y="380" width="190" height="140" as="geometry"/>
                </mxCell>
                <mxCell id="7" value="&lt;p style=&quot;margin: 0px ; margin-top: 4px ; text-align: center&quot;&gt;&lt;i&gt;&amp;lt;&amp;lt;Interface&amp;gt;&amp;gt;&lt;/i&gt;&lt;br&gt;&lt;b&gt;Iterable&amp;lt;Product&amp;gt;&lt;/b&gt;&lt;/p&gt;&lt;hr size=&quot;1&quot;&gt;&lt;p style=&quot;margin: 0px ; margin-left: 4px&quot;&gt;&lt;/p&gt;&lt;p style=&quot;margin: 0px ; margin-left: 4px&quot;&gt;&lt;br&gt;&lt;/p&gt;" style="verticalAlign=top;align=left;overflow=fill;fontSize=12;fontFamily=Helvetica;html=1;" vertex="1" parent="1">
                    <mxGeometry x="90" y="150" width="170" height="70" as="geometry"/>
                </mxCell>
                <mxCell id="8" value="Extends" style="endArrow=block;endSize=16;endFill=0;html=1;exitX=0.5;exitY=0;exitDx=0;exitDy=0;entryX=0.5;entryY=1;entryDx=0;entryDy=0;" edge="1" parent="1" source="6" target="7">
                    <mxGeometry width="160" relative="1" as="geometry">
                        <mxPoint x="180" y="240" as="sourcePoint"/>
                        <mxPoint x="340" y="240" as="targetPoint"/>
                    </mxGeometry>
                </mxCell>
            </root>
        </mxGraphModel>
    </diagram>
    <diagram id="Qh-03hcxRJDdMLnqMUXi" name="Inventory">
        <mxGraphModel dx="826" dy="493" grid="1" gridSize="10" guides="1" tooltips="1" connect="1" arrows="1" fold="1" page="1" pageScale="1" pageWidth="850" pageHeight="1100" math="0" shadow="0">
            <root>
                <mxCell id="EGExMOYMaC_mzCbo7UvZ-0"/>
                <mxCell id="EGExMOYMaC_mzCbo7UvZ-1" parent="EGExMOYMaC_mzCbo7UvZ-0"/>
            </root>
        </mxGraphModel>
    </diagram>
    <diagram id="9oGghsdvzEPgBlAKxy7w" name="Purchases">
        <mxGraphModel dx="826" dy="493" grid="1" gridSize="10" guides="1" tooltips="1" connect="1" arrows="1" fold="1" page="1" pageScale="1" pageWidth="850" pageHeight="1100" math="0" shadow="0">
            <root>
                <mxCell id="RiUaXSaeDQT0kNb5o1e2-0"/>
                <mxCell id="RiUaXSaeDQT0kNb5o1e2-1" parent="RiUaXSaeDQT0kNb5o1e2-0"/>
            </root>
        </mxGraphModel>
    </diagram>
    <diagram id="edrFIu9YKLeln14RVLPl" name="Salles">
        <mxGraphModel dx="826" dy="493" grid="1" gridSize="10" guides="1" tooltips="1" connect="1" arrows="1" fold="1" page="1" pageScale="1" pageWidth="850" pageHeight="1100" math="0" shadow="0">
            <root>
                <mxCell id="7e4BD5_Q9EdLluCthi1z-0"/>
                <mxCell id="7e4BD5_Q9EdLluCthi1z-1" parent="7e4BD5_Q9EdLluCthi1z-0"/>
            </root>
        </mxGraphModel>
    </diagram>
</mxfile>